<svg width="20" height="20" viewBox="0 0 20 20" fill="none" xmlns="http://www.w3.org/2000/svg">
<path fill-rule="evenodd" clip-rule="evenodd" d="M10.6115 1.66675C9.82363 1.66675 9.19891 2.29027 9.19891 3.04399C9.19891 3.7977 9.82363 4.42142 10.6115 4.42142C11.4264 4.42142 12.0511 3.7977 12.0511 3.04399C12.0511 2.29047 11.4264 1.66675 10.6115 1.66675ZM9.38911 4.31731C9.09028 4.34338 8.84576 4.49926 8.65556 4.62907C8.41104 4.81122 8.03084 5.20102 8.03084 5.20102V5.2269C8.00358 5.2269 6.50963 6.89002 5.64039 7.66962C5.55882 7.74766 5.5045 7.8255 5.47745 7.92962L5.04293 10.1904C4.96136 10.4502 5.17861 10.7621 5.45019 10.8139C5.72196 10.8661 6.04785 10.6582 6.07491 10.3723L6.50963 8.26726L8.19378 6.6561V10.9439L7.24297 13.2047L4.30958 17.1809C4.19536 17.3405 4.14695 17.535 4.17369 17.7268C4.20095 17.9085 4.30958 18.0905 4.47253 18.1944C4.63547 18.3244 4.85273 18.3503 5.07019 18.3244C5.26019 18.2724 5.45039 18.1685 5.55902 18.0126V17.9866L8.51988 13.9846L8.60145 13.8288L9.7152 11.178L11.9155 14.0105L13.5453 17.6487C13.6812 17.9866 14.17 18.1683 14.5232 18.0124C14.8763 17.8826 15.0665 17.4148 14.9306 17.0772L13.2737 13.387L13.1921 13.2309L11.0733 10.5282V7.22786L11.9152 8.16334L11.9968 8.24138L14.1698 9.85254C14.36 10.0084 14.7404 9.98253 14.9034 9.7745C15.0663 9.56666 15.012 9.22882 14.8218 9.04706L12.7031 7.46178C12.0511 6.73414 11.209 5.72062 10.8288 5.25298C10.6385 5.01906 10.1495 4.39534 9.5248 4.31731H9.38911Z" fill="white"/>
</svg>
