<svg width="20" height="20" viewBox="0 0 20 20" fill="none" xmlns="http://www.w3.org/2000/svg">
<path d="M15.75 4.16659C15.5833 3.66659 15.0833 3.33325 14.5833 3.33325H5.41667C4.83333 3.33325 4.41667 3.66659 4.25 4.16659L2.5 9.16658V15.8333C2.5 16.2499 2.91667 16.6666 3.33333 16.6666H4.16667C4.66667 16.6666 5 16.2499 5 15.8333V14.9999H15V15.8333C15 16.2499 15.4167 16.6666 15.8333 16.6666H16.6667C17.0833 16.6666 17.5 16.2499 17.5 15.8333V9.16658L15.75 4.16659ZM5.66667 4.99992H14.25L15.1667 7.49992H4.83333L5.66667 4.99992ZM15.8333 13.3333H4.16667V9.16658H15.8333V13.3333ZM6.25 9.99992C6.91667 9.99992 7.5 10.5833 7.5 11.2499C7.5 11.9166 6.91667 12.4999 6.25 12.4999C5.58333 12.4999 5 11.9166 5 11.2499C5 10.5833 5.58333 9.99992 6.25 9.99992ZM13.75 9.99992C14.4167 9.99992 15 10.5833 15 11.2499C15 11.9166 14.4167 12.4999 13.75 12.4999C13.0833 12.4999 12.5 11.9166 12.5 11.2499C12.5 10.5833 13.0833 9.99992 13.75 9.99992Z" fill="#2F3441"/>
</svg>
