<svg width="356" height="92" viewBox="0 0 356 92" fill="none" xmlns="http://www.w3.org/2000/svg">
<rect x="148" y="35" width="8" height="25" rx="2" fill="#00AAFF"/>
<rect x="161" y="35" width="8" height="25" rx="2" fill="#00AAFF"/>
<rect x="174" y="21" width="8" height="39" rx="2" fill="#1E4BD2"/>
<rect x="187" y="17" width="8" height="43" rx="2" fill="#1E4BD2"/>
<rect x="200" y="25" width="8" height="35" rx="2" fill="#00AAFF"/>
<rect x="213" y="17" width="8" height="43" rx="2" fill="#1E4BD2"/>
<rect x="226" y="14" width="8" height="46" rx="2" fill="#1E4BD2"/>
<rect x="239" y="7" width="8" height="53" rx="2" fill="#0A2896"/>
<rect x="252" width="8" height="60" rx="2" fill="#0A2896"/>
<rect x="265" y="8" width="8" height="52" rx="2" fill="#0A2896"/>
<rect x="21" y="62" width="2" height="10" rx="1" fill="#D9D9D9"/>
<rect x="34" y="66" width="2" height="6" rx="1" fill="#D9D9D9"/>
<rect x="47" y="66" width="2" height="6" rx="1" fill="#D9D9D9"/>
<rect x="60" y="66" width="2" height="6" rx="1" fill="#D9D9D9"/>
<rect x="73" y="62" width="2" height="10" rx="1" fill="#D9D9D9"/>
<rect x="86" y="66" width="2" height="6" rx="1" fill="#D9D9D9"/>
<rect x="99" y="66" width="2" height="6" rx="1" fill="#D9D9D9"/>
<rect x="112" y="66" width="2" height="6" rx="1" fill="#D9D9D9"/>
<rect x="125" y="62" width="2" height="10" rx="1" fill="#D9D9D9"/>
<rect x="138" y="66" width="2" height="6" rx="1" fill="#D9D9D9"/>
<rect x="151" y="66" width="2" height="6" rx="1" fill="#D9D9D9"/>
<rect x="164" y="66" width="2" height="6" rx="1" fill="#D9D9D9"/>
<rect x="177" y="62" width="2" height="10" rx="1" fill="#D9D9D9"/>
<rect x="190" y="66" width="2" height="6" rx="1" fill="#D9D9D9"/>
<rect x="203" y="66" width="2" height="6" rx="1" fill="#D9D9D9"/>
<rect x="216" y="66" width="2" height="6" rx="1" fill="#D9D9D9"/>
<rect x="229" y="62" width="2" height="10" rx="1" fill="#D9D9D9"/>
<rect x="242" y="66" width="2" height="6" rx="1" fill="#D9D9D9"/>
<rect x="255" y="66" width="2" height="6" rx="1" fill="#D9D9D9"/>
<rect x="268" y="66" width="2" height="6" rx="1" fill="#D9D9D9"/>
<rect x="281" y="62" width="2" height="10" rx="1" fill="#D9D9D9"/>
<rect x="294" y="66" width="2" height="6" rx="1" fill="#D9D9D9"/>
<rect x="307" y="66" width="2" height="6" rx="1" fill="#D9D9D9"/>
<rect x="320" y="66" width="2" height="6" rx="1" fill="#D9D9D9"/>
<rect x="333" y="62" width="2" height="10" rx="1" fill="#D9D9D9"/>
<path d="M8.35 87.112C7.83667 87.112 7.37467 87.014 6.964 86.818C6.55333 86.622 6.19867 86.3187 5.9 85.908C5.61067 85.4973 5.38667 84.9793 5.228 84.354C5.06933 83.7193 4.99 82.968 4.99 82.1C4.99 81.232 5.06933 80.4807 5.228 79.846C5.396 79.2113 5.62467 78.6933 5.914 78.292C6.21267 77.8813 6.56267 77.578 6.964 77.382C7.37467 77.186 7.82733 77.088 8.322 77.088C8.83533 77.088 9.302 77.186 9.722 77.382C10.142 77.578 10.4967 77.8813 10.786 78.292C11.0847 78.6933 11.3133 79.2113 11.472 79.846C11.6307 80.4807 11.71 81.232 11.71 82.1C11.71 82.996 11.626 83.7613 11.458 84.396C11.29 85.0307 11.0567 85.5487 10.758 85.95C10.4593 86.3513 10.1047 86.6453 9.694 86.832C9.28333 87.0187 8.83533 87.112 8.35 87.112ZM8.35 85.936C8.66733 85.936 8.94733 85.8707 9.19 85.74C9.442 85.6 9.652 85.3807 9.82 85.082C9.99733 84.774 10.1327 84.3773 10.226 83.892C10.3193 83.3973 10.366 82.8 10.366 82.1C10.366 81.372 10.3147 80.7653 10.212 80.28C10.1187 79.7853 9.98333 79.3887 9.806 79.09C9.62867 78.7913 9.414 78.5813 9.162 78.46C8.91 78.3293 8.63 78.264 8.322 78.264C8.03267 78.264 7.76667 78.3293 7.524 78.46C7.28133 78.5813 7.07133 78.7913 6.894 79.09C6.71667 79.3793 6.57667 79.7713 6.474 80.266C6.38067 80.7607 6.334 81.372 6.334 82.1C6.334 82.8187 6.38533 83.4253 6.488 83.92C6.59067 84.4053 6.73067 84.7973 6.908 85.096C7.09467 85.3947 7.30933 85.6093 7.552 85.74C7.804 85.8707 8.07 85.936 8.35 85.936ZM16.0473 87.112C15.5339 87.112 15.0719 87.014 14.6613 86.818C14.2506 86.622 13.8959 86.3187 13.5973 85.908C13.3079 85.4973 13.0839 84.9793 12.9253 84.354C12.7666 83.7193 12.6873 82.968 12.6873 82.1C12.6873 81.232 12.7666 80.4807 12.9253 79.846C13.0933 79.2113 13.3219 78.6933 13.6113 78.292C13.9099 77.8813 14.2599 77.578 14.6613 77.382C15.0719 77.186 15.5246 77.088 16.0193 77.088C16.5326 77.088 16.9993 77.186 17.4193 77.382C17.8393 77.578 18.1939 77.8813 18.4833 78.292C18.7819 78.6933 19.0106 79.2113 19.1693 79.846C19.3279 80.4807 19.4073 81.232 19.4073 82.1C19.4073 82.996 19.3233 83.7613 19.1553 84.396C18.9873 85.0307 18.7539 85.5487 18.4553 85.95C18.1566 86.3513 17.8019 86.6453 17.3913 86.832C16.9806 87.0187 16.5326 87.112 16.0473 87.112ZM16.0473 85.936C16.3646 85.936 16.6446 85.8707 16.8873 85.74C17.1393 85.6 17.3493 85.3807 17.5173 85.082C17.6946 84.774 17.8299 84.3773 17.9233 83.892C18.0166 83.3973 18.0633 82.8 18.0633 82.1C18.0633 81.372 18.0119 80.7653 17.9093 80.28C17.8159 79.7853 17.6806 79.3887 17.5033 79.09C17.3259 78.7913 17.1113 78.5813 16.8593 78.46C16.6073 78.3293 16.3273 78.264 16.0193 78.264C15.7299 78.264 15.4639 78.3293 15.2213 78.46C14.9786 78.5813 14.7686 78.7913 14.5913 79.09C14.4139 79.3793 14.2739 79.7713 14.1713 80.266C14.0779 80.7607 14.0313 81.372 14.0313 82.1C14.0313 82.8187 14.0826 83.4253 14.1853 83.92C14.2879 84.4053 14.4279 84.7973 14.6053 85.096C14.7919 85.3947 15.0066 85.6093 15.2493 85.74C15.5013 85.8707 15.7673 85.936 16.0473 85.936ZM21.0565 85.432H22.6245V87H21.0565V85.432ZM22.6245 81.428H21.0565V79.86H22.6245V81.428ZM27.641 87.112C27.1277 87.112 26.6657 87.014 26.255 86.818C25.8443 86.622 25.4897 86.3187 25.191 85.908C24.9017 85.4973 24.6777 84.9793 24.519 84.354C24.3603 83.7193 24.281 82.968 24.281 82.1C24.281 81.232 24.3603 80.4807 24.519 79.846C24.687 79.2113 24.9157 78.6933 25.205 78.292C25.5037 77.8813 25.8537 77.578 26.255 77.382C26.6657 77.186 27.1183 77.088 27.613 77.088C28.1263 77.088 28.593 77.186 29.013 77.382C29.433 77.578 29.7877 77.8813 30.077 78.292C30.3757 78.6933 30.6043 79.2113 30.763 79.846C30.9217 80.4807 31.001 81.232 31.001 82.1C31.001 82.996 30.917 83.7613 30.749 84.396C30.581 85.0307 30.3477 85.5487 30.049 85.95C29.7503 86.3513 29.3957 86.6453 28.985 86.832C28.5743 87.0187 28.1263 87.112 27.641 87.112ZM27.641 85.936C27.9583 85.936 28.2383 85.8707 28.481 85.74C28.733 85.6 28.943 85.3807 29.111 85.082C29.2883 84.774 29.4237 84.3773 29.517 83.892C29.6103 83.3973 29.657 82.8 29.657 82.1C29.657 81.372 29.6057 80.7653 29.503 80.28C29.4097 79.7853 29.2743 79.3887 29.097 79.09C28.9197 78.7913 28.705 78.5813 28.453 78.46C28.201 78.3293 27.921 78.264 27.613 78.264C27.3237 78.264 27.0577 78.3293 26.815 78.46C26.5723 78.5813 26.3623 78.7913 26.185 79.09C26.0077 79.3793 25.8677 79.7713 25.765 80.266C25.6717 80.7607 25.625 81.372 25.625 82.1C25.625 82.8187 25.6763 83.4253 25.779 83.92C25.8817 84.4053 26.0217 84.7973 26.199 85.096C26.3857 85.3947 26.6003 85.6093 26.843 85.74C27.095 85.8707 27.361 85.936 27.641 85.936ZM35.3383 87.112C34.8249 87.112 34.3629 87.014 33.9523 86.818C33.5416 86.622 33.1869 86.3187 32.8883 85.908C32.5989 85.4973 32.3749 84.9793 32.2163 84.354C32.0576 83.7193 31.9783 82.968 31.9783 82.1C31.9783 81.232 32.0576 80.4807 32.2163 79.846C32.3843 79.2113 32.6129 78.6933 32.9023 78.292C33.2009 77.8813 33.5509 77.578 33.9523 77.382C34.3629 77.186 34.8156 77.088 35.3103 77.088C35.8236 77.088 36.2903 77.186 36.7103 77.382C37.1303 77.578 37.4849 77.8813 37.7743 78.292C38.0729 78.6933 38.3016 79.2113 38.4603 79.846C38.6189 80.4807 38.6983 81.232 38.6983 82.1C38.6983 82.996 38.6143 83.7613 38.4463 84.396C38.2783 85.0307 38.0449 85.5487 37.7463 85.95C37.4476 86.3513 37.0929 86.6453 36.6823 86.832C36.2716 87.0187 35.8236 87.112 35.3383 87.112ZM35.3383 85.936C35.6556 85.936 35.9356 85.8707 36.1783 85.74C36.4303 85.6 36.6403 85.3807 36.8083 85.082C36.9856 84.774 37.1209 84.3773 37.2143 83.892C37.3076 83.3973 37.3543 82.8 37.3543 82.1C37.3543 81.372 37.3029 80.7653 37.2003 80.28C37.1069 79.7853 36.9716 79.3887 36.7943 79.09C36.6169 78.7913 36.4023 78.5813 36.1503 78.46C35.8983 78.3293 35.6183 78.264 35.3103 78.264C35.0209 78.264 34.7549 78.3293 34.5123 78.46C34.2696 78.5813 34.0596 78.7913 33.8823 79.09C33.7049 79.3793 33.5649 79.7713 33.4623 80.266C33.3689 80.7607 33.3223 81.372 33.3223 82.1C33.3223 82.8187 33.3736 83.4253 33.4763 83.92C33.5789 84.4053 33.7189 84.7973 33.8963 85.096C34.0829 85.3947 34.2976 85.6093 34.5403 85.74C34.7923 85.8707 35.0583 85.936 35.3383 85.936Z" fill="#6B7683"/>
<path d="M60.35 87.112C59.8367 87.112 59.3747 87.014 58.964 86.818C58.5533 86.622 58.1987 86.3187 57.9 85.908C57.6107 85.4973 57.3867 84.9793 57.228 84.354C57.0693 83.7193 56.99 82.968 56.99 82.1C56.99 81.232 57.0693 80.4807 57.228 79.846C57.396 79.2113 57.6247 78.6933 57.914 78.292C58.2127 77.8813 58.5627 77.578 58.964 77.382C59.3747 77.186 59.8273 77.088 60.322 77.088C60.8353 77.088 61.302 77.186 61.722 77.382C62.142 77.578 62.4967 77.8813 62.786 78.292C63.0847 78.6933 63.3133 79.2113 63.472 79.846C63.6307 80.4807 63.71 81.232 63.71 82.1C63.71 82.996 63.626 83.7613 63.458 84.396C63.29 85.0307 63.0567 85.5487 62.758 85.95C62.4593 86.3513 62.1047 86.6453 61.694 86.832C61.2833 87.0187 60.8353 87.112 60.35 87.112ZM60.35 85.936C60.6673 85.936 60.9473 85.8707 61.19 85.74C61.442 85.6 61.652 85.3807 61.82 85.082C61.9973 84.774 62.1327 84.3773 62.226 83.892C62.3193 83.3973 62.366 82.8 62.366 82.1C62.366 81.372 62.3147 80.7653 62.212 80.28C62.1187 79.7853 61.9833 79.3887 61.806 79.09C61.6287 78.7913 61.414 78.5813 61.162 78.46C60.91 78.3293 60.63 78.264 60.322 78.264C60.0327 78.264 59.7667 78.3293 59.524 78.46C59.2813 78.5813 59.0713 78.7913 58.894 79.09C58.7167 79.3793 58.5767 79.7713 58.474 80.266C58.3807 80.7607 58.334 81.372 58.334 82.1C58.334 82.8187 58.3853 83.4253 58.488 83.92C58.5907 84.4053 58.7307 84.7973 58.908 85.096C59.0947 85.3947 59.3093 85.6093 59.552 85.74C59.804 85.8707 60.07 85.936 60.35 85.936ZM68.9713 83.626V78.348H68.9433L65.8353 83.626H68.9713ZM68.9713 84.774H64.4213V83.612L68.3693 77.2H70.3713V83.626H71.6033V84.774H70.3713V87H68.9713V84.774ZM73.0565 85.432H74.6245V87H73.0565V85.432ZM74.6245 81.428H73.0565V79.86H74.6245V81.428ZM79.641 87.112C79.1277 87.112 78.6657 87.014 78.255 86.818C77.8443 86.622 77.4897 86.3187 77.191 85.908C76.9017 85.4973 76.6777 84.9793 76.519 84.354C76.3603 83.7193 76.281 82.968 76.281 82.1C76.281 81.232 76.3603 80.4807 76.519 79.846C76.687 79.2113 76.9157 78.6933 77.205 78.292C77.5037 77.8813 77.8537 77.578 78.255 77.382C78.6657 77.186 79.1183 77.088 79.613 77.088C80.1263 77.088 80.593 77.186 81.013 77.382C81.433 77.578 81.7877 77.8813 82.077 78.292C82.3757 78.6933 82.6043 79.2113 82.763 79.846C82.9217 80.4807 83.001 81.232 83.001 82.1C83.001 82.996 82.917 83.7613 82.749 84.396C82.581 85.0307 82.3477 85.5487 82.049 85.95C81.7503 86.3513 81.3957 86.6453 80.985 86.832C80.5743 87.0187 80.1263 87.112 79.641 87.112ZM79.641 85.936C79.9583 85.936 80.2383 85.8707 80.481 85.74C80.733 85.6 80.943 85.3807 81.111 85.082C81.2883 84.774 81.4237 84.3773 81.517 83.892C81.6103 83.3973 81.657 82.8 81.657 82.1C81.657 81.372 81.6057 80.7653 81.503 80.28C81.4097 79.7853 81.2743 79.3887 81.097 79.09C80.9197 78.7913 80.705 78.5813 80.453 78.46C80.201 78.3293 79.921 78.264 79.613 78.264C79.3237 78.264 79.0577 78.3293 78.815 78.46C78.5723 78.5813 78.3623 78.7913 78.185 79.09C78.0077 79.3793 77.8677 79.7713 77.765 80.266C77.6717 80.7607 77.625 81.372 77.625 82.1C77.625 82.8187 77.6763 83.4253 77.779 83.92C77.8817 84.4053 78.0217 84.7973 78.199 85.096C78.3857 85.3947 78.6003 85.6093 78.843 85.74C79.095 85.8707 79.361 85.936 79.641 85.936ZM87.3383 87.112C86.8249 87.112 86.3629 87.014 85.9523 86.818C85.5416 86.622 85.1869 86.3187 84.8883 85.908C84.5989 85.4973 84.3749 84.9793 84.2163 84.354C84.0576 83.7193 83.9783 82.968 83.9783 82.1C83.9783 81.232 84.0576 80.4807 84.2163 79.846C84.3843 79.2113 84.6129 78.6933 84.9023 78.292C85.2009 77.8813 85.5509 77.578 85.9523 77.382C86.3629 77.186 86.8156 77.088 87.3103 77.088C87.8236 77.088 88.2903 77.186 88.7103 77.382C89.1303 77.578 89.4849 77.8813 89.7743 78.292C90.0729 78.6933 90.3016 79.2113 90.4603 79.846C90.6189 80.4807 90.6983 81.232 90.6983 82.1C90.6983 82.996 90.6143 83.7613 90.4463 84.396C90.2783 85.0307 90.0449 85.5487 89.7463 85.95C89.4476 86.3513 89.0929 86.6453 88.6823 86.832C88.2716 87.0187 87.8236 87.112 87.3383 87.112ZM87.3383 85.936C87.6556 85.936 87.9356 85.8707 88.1783 85.74C88.4303 85.6 88.6403 85.3807 88.8083 85.082C88.9856 84.774 89.1209 84.3773 89.2143 83.892C89.3076 83.3973 89.3543 82.8 89.3543 82.1C89.3543 81.372 89.3029 80.7653 89.2003 80.28C89.1069 79.7853 88.9716 79.3887 88.7943 79.09C88.6169 78.7913 88.4023 78.5813 88.1503 78.46C87.8983 78.3293 87.6183 78.264 87.3103 78.264C87.0209 78.264 86.7549 78.3293 86.5123 78.46C86.2696 78.5813 86.0596 78.7913 85.8823 79.09C85.7049 79.3793 85.5649 79.7713 85.4623 80.266C85.3689 80.7607 85.3223 81.372 85.3223 82.1C85.3223 82.8187 85.3736 83.4253 85.4763 83.92C85.5789 84.4053 85.7189 84.7973 85.8963 85.096C86.0829 85.3947 86.2976 85.6093 86.5403 85.74C86.7923 85.8707 87.0583 85.936 87.3383 85.936Z" fill="#6B7683"/>
<path d="M112.35 87.112C111.837 87.112 111.375 87.014 110.964 86.818C110.553 86.622 110.199 86.3187 109.9 85.908C109.611 85.4973 109.387 84.9793 109.228 84.354C109.069 83.7193 108.99 82.968 108.99 82.1C108.99 81.232 109.069 80.4807 109.228 79.846C109.396 79.2113 109.625 78.6933 109.914 78.292C110.213 77.8813 110.563 77.578 110.964 77.382C111.375 77.186 111.827 77.088 112.322 77.088C112.835 77.088 113.302 77.186 113.722 77.382C114.142 77.578 114.497 77.8813 114.786 78.292C115.085 78.6933 115.313 79.2113 115.472 79.846C115.631 80.4807 115.71 81.232 115.71 82.1C115.71 82.996 115.626 83.7613 115.458 84.396C115.29 85.0307 115.057 85.5487 114.758 85.95C114.459 86.3513 114.105 86.6453 113.694 86.832C113.283 87.0187 112.835 87.112 112.35 87.112ZM112.35 85.936C112.667 85.936 112.947 85.8707 113.19 85.74C113.442 85.6 113.652 85.3807 113.82 85.082C113.997 84.774 114.133 84.3773 114.226 83.892C114.319 83.3973 114.366 82.8 114.366 82.1C114.366 81.372 114.315 80.7653 114.212 80.28C114.119 79.7853 113.983 79.3887 113.806 79.09C113.629 78.7913 113.414 78.5813 113.162 78.46C112.91 78.3293 112.63 78.264 112.322 78.264C112.033 78.264 111.767 78.3293 111.524 78.46C111.281 78.5813 111.071 78.7913 110.894 79.09C110.717 79.3793 110.577 79.7713 110.474 80.266C110.381 80.7607 110.334 81.372 110.334 82.1C110.334 82.8187 110.385 83.4253 110.488 83.92C110.591 84.4053 110.731 84.7973 110.908 85.096C111.095 85.3947 111.309 85.6093 111.552 85.74C111.804 85.8707 112.07 85.936 112.35 85.936ZM118.759 81.82C118.545 81.7453 118.311 81.6333 118.059 81.484C117.807 81.3253 117.593 81.134 117.415 80.91C117.257 80.7233 117.135 80.4993 117.051 80.238C116.967 79.9673 116.925 79.6827 116.925 79.384C116.925 79.0947 117.009 78.7773 117.177 78.432C117.345 78.0867 117.649 77.7833 118.087 77.522C118.358 77.3633 118.661 77.2467 118.997 77.172C119.333 77.0973 119.669 77.06 120.005 77.06C120.463 77.06 120.878 77.1113 121.251 77.214C121.634 77.3167 121.979 77.4893 122.287 77.732C122.53 77.9187 122.726 78.1427 122.875 78.404C123.034 78.656 123.113 78.9593 123.113 79.314C123.113 79.6313 123.062 79.9253 122.959 80.196C122.866 80.4573 122.726 80.6907 122.539 80.896C122.381 81.0733 122.185 81.2413 121.951 81.4C121.727 81.5493 121.527 81.6707 121.349 81.764C121.592 81.848 121.839 81.9647 122.091 82.114C122.343 82.2633 122.558 82.4313 122.735 82.618C122.978 82.87 123.151 83.1453 123.253 83.444C123.356 83.7427 123.407 84.0413 123.407 84.34C123.407 84.816 123.323 85.222 123.155 85.558C122.997 85.8847 122.777 86.16 122.497 86.384C122.283 86.5613 121.979 86.734 121.587 86.902C121.195 87.0607 120.696 87.14 120.089 87.14C119.501 87.14 119.011 87.0607 118.619 86.902C118.227 86.7433 117.905 86.566 117.653 86.37C117.009 85.866 116.687 85.2127 116.687 84.41C116.687 84.018 116.767 83.6633 116.925 83.346C117.084 83.0193 117.285 82.7487 117.527 82.534C117.705 82.3753 117.91 82.24 118.143 82.128C118.377 82.0067 118.582 81.9133 118.759 81.848V81.82ZM120.341 81.358C120.817 81.0313 121.149 80.728 121.335 80.448C121.531 80.168 121.629 79.8647 121.629 79.538C121.629 79.3047 121.592 79.1087 121.517 78.95C121.443 78.782 121.303 78.6327 121.097 78.502C120.808 78.306 120.435 78.208 119.977 78.208C119.725 78.208 119.497 78.2453 119.291 78.32C119.095 78.3947 118.923 78.4927 118.773 78.614C118.587 78.7727 118.465 78.9407 118.409 79.118C118.353 79.286 118.325 79.44 118.325 79.58C118.325 79.776 118.372 79.9487 118.465 80.098C118.559 80.2473 118.671 80.378 118.801 80.49C118.923 80.5927 119.091 80.714 119.305 80.854C119.529 80.994 119.735 81.1013 119.921 81.176L120.341 81.358ZM119.361 82.646C119.231 82.73 119.095 82.8233 118.955 82.926C118.815 83.0193 118.685 83.1313 118.563 83.262C118.451 83.3833 118.358 83.5327 118.283 83.71C118.209 83.8873 118.171 84.0927 118.171 84.326C118.171 84.6153 118.223 84.858 118.325 85.054C118.437 85.2407 118.573 85.3993 118.731 85.53C118.918 85.6887 119.142 85.8053 119.403 85.88C119.665 85.9547 119.912 85.992 120.145 85.992C120.397 85.992 120.631 85.9547 120.845 85.88C121.069 85.8053 121.261 85.698 121.419 85.558C121.522 85.4553 121.629 85.306 121.741 85.11C121.863 84.914 121.923 84.6527 121.923 84.326C121.923 84.0647 121.877 83.8453 121.783 83.668C121.699 83.4907 121.583 83.3413 121.433 83.22C121.284 83.0893 121.111 82.9773 120.915 82.884C120.719 82.7907 120.514 82.6927 120.299 82.59L119.795 82.366L119.361 82.646ZM125.057 85.432H126.625V87H125.057V85.432ZM126.625 81.428H125.057V79.86H126.625V81.428ZM131.641 87.112C131.128 87.112 130.666 87.014 130.255 86.818C129.844 86.622 129.49 86.3187 129.191 85.908C128.902 85.4973 128.678 84.9793 128.519 84.354C128.36 83.7193 128.281 82.968 128.281 82.1C128.281 81.232 128.36 80.4807 128.519 79.846C128.687 79.2113 128.916 78.6933 129.205 78.292C129.504 77.8813 129.854 77.578 130.255 77.382C130.666 77.186 131.118 77.088 131.613 77.088C132.126 77.088 132.593 77.186 133.013 77.382C133.433 77.578 133.788 77.8813 134.077 78.292C134.376 78.6933 134.604 79.2113 134.763 79.846C134.922 80.4807 135.001 81.232 135.001 82.1C135.001 82.996 134.917 83.7613 134.749 84.396C134.581 85.0307 134.348 85.5487 134.049 85.95C133.75 86.3513 133.396 86.6453 132.985 86.832C132.574 87.0187 132.126 87.112 131.641 87.112ZM131.641 85.936C131.958 85.936 132.238 85.8707 132.481 85.74C132.733 85.6 132.943 85.3807 133.111 85.082C133.288 84.774 133.424 84.3773 133.517 83.892C133.61 83.3973 133.657 82.8 133.657 82.1C133.657 81.372 133.606 80.7653 133.503 80.28C133.41 79.7853 133.274 79.3887 133.097 79.09C132.92 78.7913 132.705 78.5813 132.453 78.46C132.201 78.3293 131.921 78.264 131.613 78.264C131.324 78.264 131.058 78.3293 130.815 78.46C130.572 78.5813 130.362 78.7913 130.185 79.09C130.008 79.3793 129.868 79.7713 129.765 80.266C129.672 80.7607 129.625 81.372 129.625 82.1C129.625 82.8187 129.676 83.4253 129.779 83.92C129.882 84.4053 130.022 84.7973 130.199 85.096C130.386 85.3947 130.6 85.6093 130.843 85.74C131.095 85.8707 131.361 85.936 131.641 85.936ZM139.338 87.112C138.825 87.112 138.363 87.014 137.952 86.818C137.542 86.622 137.187 86.3187 136.888 85.908C136.599 85.4973 136.375 84.9793 136.216 84.354C136.058 83.7193 135.978 82.968 135.978 82.1C135.978 81.232 136.058 80.4807 136.216 79.846C136.384 79.2113 136.613 78.6933 136.902 78.292C137.201 77.8813 137.551 77.578 137.952 77.382C138.363 77.186 138.816 77.088 139.31 77.088C139.824 77.088 140.29 77.186 140.71 77.382C141.13 77.578 141.485 77.8813 141.774 78.292C142.073 78.6933 142.302 79.2113 142.46 79.846C142.619 80.4807 142.698 81.232 142.698 82.1C142.698 82.996 142.614 83.7613 142.446 84.396C142.278 85.0307 142.045 85.5487 141.746 85.95C141.448 86.3513 141.093 86.6453 140.682 86.832C140.272 87.0187 139.824 87.112 139.338 87.112ZM139.338 85.936C139.656 85.936 139.936 85.8707 140.178 85.74C140.43 85.6 140.64 85.3807 140.808 85.082C140.986 84.774 141.121 84.3773 141.214 83.892C141.308 83.3973 141.354 82.8 141.354 82.1C141.354 81.372 141.303 80.7653 141.2 80.28C141.107 79.7853 140.972 79.3887 140.794 79.09C140.617 78.7913 140.402 78.5813 140.15 78.46C139.898 78.3293 139.618 78.264 139.31 78.264C139.021 78.264 138.755 78.3293 138.512 78.46C138.27 78.5813 138.06 78.7913 137.882 79.09C137.705 79.3793 137.565 79.7713 137.462 80.266C137.369 80.7607 137.322 81.372 137.322 82.1C137.322 82.8187 137.374 83.4253 137.476 83.92C137.579 84.4053 137.719 84.7973 137.896 85.096C138.083 85.3947 138.298 85.6093 138.54 85.74C138.792 85.8707 139.058 85.936 139.338 85.936Z" fill="#6B7683"/>
<path d="M164.364 78.81L162.488 80.476L161.746 79.524L164.518 77.2H165.764V87H164.364V78.81ZM168.785 87V85.782L170.619 84.13C171.077 83.7193 171.483 83.3413 171.837 82.996C172.192 82.6413 172.491 82.3053 172.733 81.988C172.985 81.6707 173.172 81.3627 173.293 81.064C173.424 80.7653 173.489 80.4527 173.489 80.126C173.489 79.4913 173.298 79.034 172.915 78.754C172.542 78.4647 172.061 78.32 171.473 78.32C170.979 78.32 170.545 78.39 170.171 78.53C169.798 78.6607 169.462 78.8193 169.163 79.006V77.662C169.649 77.438 170.101 77.2887 170.521 77.214C170.951 77.13 171.329 77.088 171.655 77.088C172.085 77.088 172.491 77.144 172.873 77.256C173.256 77.368 173.592 77.536 173.881 77.76C174.171 77.984 174.399 78.2687 174.567 78.614C174.745 78.9593 174.833 79.37 174.833 79.846C174.833 80.3687 174.731 80.868 174.525 81.344C174.32 81.8107 174.035 82.268 173.671 82.716C173.307 83.164 172.873 83.612 172.369 84.06C171.875 84.4987 171.333 84.9607 170.745 85.446L170.297 85.81V85.824H174.973V87H168.785ZM177.057 85.432H178.625V87H177.057V85.432ZM178.625 81.428H177.057V79.86H178.625V81.428ZM183.641 87.112C183.128 87.112 182.666 87.014 182.255 86.818C181.844 86.622 181.49 86.3187 181.191 85.908C180.902 85.4973 180.678 84.9793 180.519 84.354C180.36 83.7193 180.281 82.968 180.281 82.1C180.281 81.232 180.36 80.4807 180.519 79.846C180.687 79.2113 180.916 78.6933 181.205 78.292C181.504 77.8813 181.854 77.578 182.255 77.382C182.666 77.186 183.118 77.088 183.613 77.088C184.126 77.088 184.593 77.186 185.013 77.382C185.433 77.578 185.788 77.8813 186.077 78.292C186.376 78.6933 186.604 79.2113 186.763 79.846C186.922 80.4807 187.001 81.232 187.001 82.1C187.001 82.996 186.917 83.7613 186.749 84.396C186.581 85.0307 186.348 85.5487 186.049 85.95C185.75 86.3513 185.396 86.6453 184.985 86.832C184.574 87.0187 184.126 87.112 183.641 87.112ZM183.641 85.936C183.958 85.936 184.238 85.8707 184.481 85.74C184.733 85.6 184.943 85.3807 185.111 85.082C185.288 84.774 185.424 84.3773 185.517 83.892C185.61 83.3973 185.657 82.8 185.657 82.1C185.657 81.372 185.606 80.7653 185.503 80.28C185.41 79.7853 185.274 79.3887 185.097 79.09C184.92 78.7913 184.705 78.5813 184.453 78.46C184.201 78.3293 183.921 78.264 183.613 78.264C183.324 78.264 183.058 78.3293 182.815 78.46C182.572 78.5813 182.362 78.7913 182.185 79.09C182.008 79.3793 181.868 79.7713 181.765 80.266C181.672 80.7607 181.625 81.372 181.625 82.1C181.625 82.8187 181.676 83.4253 181.779 83.92C181.882 84.4053 182.022 84.7973 182.199 85.096C182.386 85.3947 182.6 85.6093 182.843 85.74C183.095 85.8707 183.361 85.936 183.641 85.936ZM191.338 87.112C190.825 87.112 190.363 87.014 189.952 86.818C189.542 86.622 189.187 86.3187 188.888 85.908C188.599 85.4973 188.375 84.9793 188.216 84.354C188.058 83.7193 187.978 82.968 187.978 82.1C187.978 81.232 188.058 80.4807 188.216 79.846C188.384 79.2113 188.613 78.6933 188.902 78.292C189.201 77.8813 189.551 77.578 189.952 77.382C190.363 77.186 190.816 77.088 191.31 77.088C191.824 77.088 192.29 77.186 192.71 77.382C193.13 77.578 193.485 77.8813 193.774 78.292C194.073 78.6933 194.302 79.2113 194.46 79.846C194.619 80.4807 194.698 81.232 194.698 82.1C194.698 82.996 194.614 83.7613 194.446 84.396C194.278 85.0307 194.045 85.5487 193.746 85.95C193.448 86.3513 193.093 86.6453 192.682 86.832C192.272 87.0187 191.824 87.112 191.338 87.112ZM191.338 85.936C191.656 85.936 191.936 85.8707 192.178 85.74C192.43 85.6 192.64 85.3807 192.808 85.082C192.986 84.774 193.121 84.3773 193.214 83.892C193.308 83.3973 193.354 82.8 193.354 82.1C193.354 81.372 193.303 80.7653 193.2 80.28C193.107 79.7853 192.972 79.3887 192.794 79.09C192.617 78.7913 192.402 78.5813 192.15 78.46C191.898 78.3293 191.618 78.264 191.31 78.264C191.021 78.264 190.755 78.3293 190.512 78.46C190.27 78.5813 190.06 78.7913 189.882 79.09C189.705 79.3793 189.565 79.7713 189.462 80.266C189.369 80.7607 189.322 81.372 189.322 82.1C189.322 82.8187 189.374 83.4253 189.476 83.92C189.579 84.4053 189.719 84.7973 189.896 85.096C190.083 85.3947 190.298 85.6093 190.54 85.74C190.792 85.8707 191.058 85.936 191.338 85.936Z" fill="#6B7683"/>
<path d="M216.364 78.81L214.488 80.476L213.746 79.524L216.518 77.2H217.764V87H216.364V78.81ZM226.679 78.642C226.409 78.5393 226.133 78.46 225.853 78.404C225.573 78.348 225.265 78.32 224.929 78.32C224.453 78.32 224.033 78.4133 223.669 78.6C223.315 78.7867 223.016 79.0433 222.773 79.37C222.531 79.6967 222.349 80.084 222.227 80.532C222.106 80.98 222.05 81.4653 222.059 81.988C222.171 81.82 222.293 81.666 222.423 81.526C222.563 81.386 222.727 81.2647 222.913 81.162C223.1 81.0593 223.315 80.98 223.557 80.924C223.809 80.8587 224.103 80.826 224.439 80.826C224.869 80.826 225.261 80.896 225.615 81.036C225.97 81.176 226.273 81.3767 226.525 81.638C226.787 81.8993 226.987 82.2213 227.127 82.604C227.267 82.9773 227.337 83.402 227.337 83.878C227.337 84.3353 227.267 84.76 227.127 85.152C226.997 85.544 226.801 85.8847 226.539 86.174C226.287 86.4633 225.97 86.692 225.587 86.86C225.214 87.028 224.785 87.112 224.299 87.112C223.646 87.112 223.1 86.972 222.661 86.692C222.223 86.412 221.868 86.0527 221.597 85.614C221.327 85.166 221.131 84.6667 221.009 84.116C220.897 83.556 220.841 82.996 220.841 82.436C220.841 81.6707 220.921 80.9613 221.079 80.308C221.247 79.6547 221.499 79.09 221.835 78.614C222.171 78.138 222.596 77.7647 223.109 77.494C223.623 77.2233 224.229 77.088 224.929 77.088C225.573 77.088 226.157 77.1767 226.679 77.354V78.642ZM224.187 85.964C224.523 85.964 224.803 85.9127 225.027 85.81C225.261 85.7073 225.447 85.5673 225.587 85.39C225.727 85.2033 225.83 84.984 225.895 84.732C225.961 84.48 225.993 84.2047 225.993 83.906C225.993 83.346 225.849 82.884 225.559 82.52C225.279 82.156 224.859 81.974 224.299 81.974C223.973 81.974 223.688 82.0207 223.445 82.114C223.203 82.2073 222.997 82.338 222.829 82.506C222.661 82.6647 222.535 82.8467 222.451 83.052C222.367 83.2573 222.325 83.472 222.325 83.696C222.325 84.004 222.367 84.298 222.451 84.578C222.545 84.8487 222.671 85.0867 222.829 85.292C222.997 85.4973 223.193 85.6607 223.417 85.782C223.651 85.9033 223.907 85.964 224.187 85.964ZM229.057 85.432H230.625V87H229.057V85.432ZM230.625 81.428H229.057V79.86H230.625V81.428ZM235.641 87.112C235.128 87.112 234.666 87.014 234.255 86.818C233.844 86.622 233.49 86.3187 233.191 85.908C232.902 85.4973 232.678 84.9793 232.519 84.354C232.36 83.7193 232.281 82.968 232.281 82.1C232.281 81.232 232.36 80.4807 232.519 79.846C232.687 79.2113 232.916 78.6933 233.205 78.292C233.504 77.8813 233.854 77.578 234.255 77.382C234.666 77.186 235.118 77.088 235.613 77.088C236.126 77.088 236.593 77.186 237.013 77.382C237.433 77.578 237.788 77.8813 238.077 78.292C238.376 78.6933 238.604 79.2113 238.763 79.846C238.922 80.4807 239.001 81.232 239.001 82.1C239.001 82.996 238.917 83.7613 238.749 84.396C238.581 85.0307 238.348 85.5487 238.049 85.95C237.75 86.3513 237.396 86.6453 236.985 86.832C236.574 87.0187 236.126 87.112 235.641 87.112ZM235.641 85.936C235.958 85.936 236.238 85.8707 236.481 85.74C236.733 85.6 236.943 85.3807 237.111 85.082C237.288 84.774 237.424 84.3773 237.517 83.892C237.61 83.3973 237.657 82.8 237.657 82.1C237.657 81.372 237.606 80.7653 237.503 80.28C237.41 79.7853 237.274 79.3887 237.097 79.09C236.92 78.7913 236.705 78.5813 236.453 78.46C236.201 78.3293 235.921 78.264 235.613 78.264C235.324 78.264 235.058 78.3293 234.815 78.46C234.572 78.5813 234.362 78.7913 234.185 79.09C234.008 79.3793 233.868 79.7713 233.765 80.266C233.672 80.7607 233.625 81.372 233.625 82.1C233.625 82.8187 233.676 83.4253 233.779 83.92C233.882 84.4053 234.022 84.7973 234.199 85.096C234.386 85.3947 234.6 85.6093 234.843 85.74C235.095 85.8707 235.361 85.936 235.641 85.936ZM243.338 87.112C242.825 87.112 242.363 87.014 241.952 86.818C241.542 86.622 241.187 86.3187 240.888 85.908C240.599 85.4973 240.375 84.9793 240.216 84.354C240.058 83.7193 239.978 82.968 239.978 82.1C239.978 81.232 240.058 80.4807 240.216 79.846C240.384 79.2113 240.613 78.6933 240.902 78.292C241.201 77.8813 241.551 77.578 241.952 77.382C242.363 77.186 242.816 77.088 243.31 77.088C243.824 77.088 244.29 77.186 244.71 77.382C245.13 77.578 245.485 77.8813 245.774 78.292C246.073 78.6933 246.302 79.2113 246.46 79.846C246.619 80.4807 246.698 81.232 246.698 82.1C246.698 82.996 246.614 83.7613 246.446 84.396C246.278 85.0307 246.045 85.5487 245.746 85.95C245.448 86.3513 245.093 86.6453 244.682 86.832C244.272 87.0187 243.824 87.112 243.338 87.112ZM243.338 85.936C243.656 85.936 243.936 85.8707 244.178 85.74C244.43 85.6 244.64 85.3807 244.808 85.082C244.986 84.774 245.121 84.3773 245.214 83.892C245.308 83.3973 245.354 82.8 245.354 82.1C245.354 81.372 245.303 80.7653 245.2 80.28C245.107 79.7853 244.972 79.3887 244.794 79.09C244.617 78.7913 244.402 78.5813 244.15 78.46C243.898 78.3293 243.618 78.264 243.31 78.264C243.021 78.264 242.755 78.3293 242.512 78.46C242.27 78.5813 242.06 78.7913 241.882 79.09C241.705 79.3793 241.565 79.7713 241.462 80.266C241.369 80.7607 241.322 81.372 241.322 82.1C241.322 82.8187 241.374 83.4253 241.476 83.92C241.579 84.4053 241.719 84.7973 241.896 85.096C242.083 85.3947 242.298 85.6093 242.54 85.74C242.792 85.8707 243.058 85.936 243.338 85.936Z" fill="#6B7683"/>
<path d="M265.088 87V85.782L266.922 84.13C267.379 83.7193 267.785 83.3413 268.14 82.996C268.495 82.6413 268.793 82.3053 269.036 81.988C269.288 81.6707 269.475 81.3627 269.596 81.064C269.727 80.7653 269.792 80.4527 269.792 80.126C269.792 79.4913 269.601 79.034 269.218 78.754C268.845 78.4647 268.364 78.32 267.776 78.32C267.281 78.32 266.847 78.39 266.474 78.53C266.101 78.6607 265.765 78.8193 265.466 79.006V77.662C265.951 77.438 266.404 77.2887 266.824 77.214C267.253 77.13 267.631 77.088 267.958 77.088C268.387 77.088 268.793 77.144 269.176 77.256C269.559 77.368 269.895 77.536 270.184 77.76C270.473 77.984 270.702 78.2687 270.87 78.614C271.047 78.9593 271.136 79.37 271.136 79.846C271.136 80.3687 271.033 80.868 270.828 81.344C270.623 81.8107 270.338 82.268 269.974 82.716C269.61 83.164 269.176 83.612 268.672 84.06C268.177 84.4987 267.636 84.9607 267.048 85.446L266.6 85.81V85.824H271.276V87H265.088ZM276.047 87.112C275.534 87.112 275.072 87.014 274.661 86.818C274.251 86.622 273.896 86.3187 273.597 85.908C273.308 85.4973 273.084 84.9793 272.925 84.354C272.767 83.7193 272.687 82.968 272.687 82.1C272.687 81.232 272.767 80.4807 272.925 79.846C273.093 79.2113 273.322 78.6933 273.611 78.292C273.91 77.8813 274.26 77.578 274.661 77.382C275.072 77.186 275.525 77.088 276.019 77.088C276.533 77.088 276.999 77.186 277.419 77.382C277.839 77.578 278.194 77.8813 278.483 78.292C278.782 78.6933 279.011 79.2113 279.169 79.846C279.328 80.4807 279.407 81.232 279.407 82.1C279.407 82.996 279.323 83.7613 279.155 84.396C278.987 85.0307 278.754 85.5487 278.455 85.95C278.157 86.3513 277.802 86.6453 277.391 86.832C276.981 87.0187 276.533 87.112 276.047 87.112ZM276.047 85.936C276.365 85.936 276.645 85.8707 276.887 85.74C277.139 85.6 277.349 85.3807 277.517 85.082C277.695 84.774 277.83 84.3773 277.923 83.892C278.017 83.3973 278.063 82.8 278.063 82.1C278.063 81.372 278.012 80.7653 277.909 80.28C277.816 79.7853 277.681 79.3887 277.503 79.09C277.326 78.7913 277.111 78.5813 276.859 78.46C276.607 78.3293 276.327 78.264 276.019 78.264C275.73 78.264 275.464 78.3293 275.221 78.46C274.979 78.5813 274.769 78.7913 274.591 79.09C274.414 79.3793 274.274 79.7713 274.171 80.266C274.078 80.7607 274.031 81.372 274.031 82.1C274.031 82.8187 274.083 83.4253 274.185 83.92C274.288 84.4053 274.428 84.7973 274.605 85.096C274.792 85.3947 275.007 85.6093 275.249 85.74C275.501 85.8707 275.767 85.936 276.047 85.936ZM281.057 85.432H282.625V87H281.057V85.432ZM282.625 81.428H281.057V79.86H282.625V81.428ZM287.641 87.112C287.128 87.112 286.666 87.014 286.255 86.818C285.844 86.622 285.49 86.3187 285.191 85.908C284.902 85.4973 284.678 84.9793 284.519 84.354C284.36 83.7193 284.281 82.968 284.281 82.1C284.281 81.232 284.36 80.4807 284.519 79.846C284.687 79.2113 284.916 78.6933 285.205 78.292C285.504 77.8813 285.854 77.578 286.255 77.382C286.666 77.186 287.118 77.088 287.613 77.088C288.126 77.088 288.593 77.186 289.013 77.382C289.433 77.578 289.788 77.8813 290.077 78.292C290.376 78.6933 290.604 79.2113 290.763 79.846C290.922 80.4807 291.001 81.232 291.001 82.1C291.001 82.996 290.917 83.7613 290.749 84.396C290.581 85.0307 290.348 85.5487 290.049 85.95C289.75 86.3513 289.396 86.6453 288.985 86.832C288.574 87.0187 288.126 87.112 287.641 87.112ZM287.641 85.936C287.958 85.936 288.238 85.8707 288.481 85.74C288.733 85.6 288.943 85.3807 289.111 85.082C289.288 84.774 289.424 84.3773 289.517 83.892C289.61 83.3973 289.657 82.8 289.657 82.1C289.657 81.372 289.606 80.7653 289.503 80.28C289.41 79.7853 289.274 79.3887 289.097 79.09C288.92 78.7913 288.705 78.5813 288.453 78.46C288.201 78.3293 287.921 78.264 287.613 78.264C287.324 78.264 287.058 78.3293 286.815 78.46C286.572 78.5813 286.362 78.7913 286.185 79.09C286.008 79.3793 285.868 79.7713 285.765 80.266C285.672 80.7607 285.625 81.372 285.625 82.1C285.625 82.8187 285.676 83.4253 285.779 83.92C285.882 84.4053 286.022 84.7973 286.199 85.096C286.386 85.3947 286.6 85.6093 286.843 85.74C287.095 85.8707 287.361 85.936 287.641 85.936ZM295.338 87.112C294.825 87.112 294.363 87.014 293.952 86.818C293.542 86.622 293.187 86.3187 292.888 85.908C292.599 85.4973 292.375 84.9793 292.216 84.354C292.058 83.7193 291.978 82.968 291.978 82.1C291.978 81.232 292.058 80.4807 292.216 79.846C292.384 79.2113 292.613 78.6933 292.902 78.292C293.201 77.8813 293.551 77.578 293.952 77.382C294.363 77.186 294.816 77.088 295.31 77.088C295.824 77.088 296.29 77.186 296.71 77.382C297.13 77.578 297.485 77.8813 297.774 78.292C298.073 78.6933 298.302 79.2113 298.46 79.846C298.619 80.4807 298.698 81.232 298.698 82.1C298.698 82.996 298.614 83.7613 298.446 84.396C298.278 85.0307 298.045 85.5487 297.746 85.95C297.448 86.3513 297.093 86.6453 296.682 86.832C296.272 87.0187 295.824 87.112 295.338 87.112ZM295.338 85.936C295.656 85.936 295.936 85.8707 296.178 85.74C296.43 85.6 296.64 85.3807 296.808 85.082C296.986 84.774 297.121 84.3773 297.214 83.892C297.308 83.3973 297.354 82.8 297.354 82.1C297.354 81.372 297.303 80.7653 297.2 80.28C297.107 79.7853 296.972 79.3887 296.794 79.09C296.617 78.7913 296.402 78.5813 296.15 78.46C295.898 78.3293 295.618 78.264 295.31 78.264C295.021 78.264 294.755 78.3293 294.512 78.46C294.27 78.5813 294.06 78.7913 293.882 79.09C293.705 79.3793 293.565 79.7713 293.462 80.266C293.369 80.7607 293.322 81.372 293.322 82.1C293.322 82.8187 293.374 83.4253 293.476 83.92C293.579 84.4053 293.719 84.7973 293.896 85.096C294.083 85.3947 294.298 85.6093 294.54 85.74C294.792 85.8707 295.058 85.936 295.338 85.936Z" fill="#6B7683"/>
<path d="M320.35 87.112C319.837 87.112 319.375 87.014 318.964 86.818C318.553 86.622 318.199 86.3187 317.9 85.908C317.611 85.4973 317.387 84.9793 317.228 84.354C317.069 83.7193 316.99 82.968 316.99 82.1C316.99 81.232 317.069 80.4807 317.228 79.846C317.396 79.2113 317.625 78.6933 317.914 78.292C318.213 77.8813 318.563 77.578 318.964 77.382C319.375 77.186 319.827 77.088 320.322 77.088C320.835 77.088 321.302 77.186 321.722 77.382C322.142 77.578 322.497 77.8813 322.786 78.292C323.085 78.6933 323.313 79.2113 323.472 79.846C323.631 80.4807 323.71 81.232 323.71 82.1C323.71 82.996 323.626 83.7613 323.458 84.396C323.29 85.0307 323.057 85.5487 322.758 85.95C322.459 86.3513 322.105 86.6453 321.694 86.832C321.283 87.0187 320.835 87.112 320.35 87.112ZM320.35 85.936C320.667 85.936 320.947 85.8707 321.19 85.74C321.442 85.6 321.652 85.3807 321.82 85.082C321.997 84.774 322.133 84.3773 322.226 83.892C322.319 83.3973 322.366 82.8 322.366 82.1C322.366 81.372 322.315 80.7653 322.212 80.28C322.119 79.7853 321.983 79.3887 321.806 79.09C321.629 78.7913 321.414 78.5813 321.162 78.46C320.91 78.3293 320.63 78.264 320.322 78.264C320.033 78.264 319.767 78.3293 319.524 78.46C319.281 78.5813 319.071 78.7913 318.894 79.09C318.717 79.3793 318.577 79.7713 318.474 80.266C318.381 80.7607 318.334 81.372 318.334 82.1C318.334 82.8187 318.385 83.4253 318.488 83.92C318.591 84.4053 318.731 84.7973 318.908 85.096C319.095 85.3947 319.309 85.6093 319.552 85.74C319.804 85.8707 320.07 85.936 320.35 85.936ZM328.047 87.112C327.534 87.112 327.072 87.014 326.661 86.818C326.251 86.622 325.896 86.3187 325.597 85.908C325.308 85.4973 325.084 84.9793 324.925 84.354C324.767 83.7193 324.687 82.968 324.687 82.1C324.687 81.232 324.767 80.4807 324.925 79.846C325.093 79.2113 325.322 78.6933 325.611 78.292C325.91 77.8813 326.26 77.578 326.661 77.382C327.072 77.186 327.525 77.088 328.019 77.088C328.533 77.088 328.999 77.186 329.419 77.382C329.839 77.578 330.194 77.8813 330.483 78.292C330.782 78.6933 331.011 79.2113 331.169 79.846C331.328 80.4807 331.407 81.232 331.407 82.1C331.407 82.996 331.323 83.7613 331.155 84.396C330.987 85.0307 330.754 85.5487 330.455 85.95C330.157 86.3513 329.802 86.6453 329.391 86.832C328.981 87.0187 328.533 87.112 328.047 87.112ZM328.047 85.936C328.365 85.936 328.645 85.8707 328.887 85.74C329.139 85.6 329.349 85.3807 329.517 85.082C329.695 84.774 329.83 84.3773 329.923 83.892C330.017 83.3973 330.063 82.8 330.063 82.1C330.063 81.372 330.012 80.7653 329.909 80.28C329.816 79.7853 329.681 79.3887 329.503 79.09C329.326 78.7913 329.111 78.5813 328.859 78.46C328.607 78.3293 328.327 78.264 328.019 78.264C327.73 78.264 327.464 78.3293 327.221 78.46C326.979 78.5813 326.769 78.7913 326.591 79.09C326.414 79.3793 326.274 79.7713 326.171 80.266C326.078 80.7607 326.031 81.372 326.031 82.1C326.031 82.8187 326.083 83.4253 326.185 83.92C326.288 84.4053 326.428 84.7973 326.605 85.096C326.792 85.3947 327.007 85.6093 327.249 85.74C327.501 85.8707 327.767 85.936 328.047 85.936ZM333.057 85.432H334.625V87H333.057V85.432ZM334.625 81.428H333.057V79.86H334.625V81.428ZM339.641 87.112C339.128 87.112 338.666 87.014 338.255 86.818C337.844 86.622 337.49 86.3187 337.191 85.908C336.902 85.4973 336.678 84.9793 336.519 84.354C336.36 83.7193 336.281 82.968 336.281 82.1C336.281 81.232 336.36 80.4807 336.519 79.846C336.687 79.2113 336.916 78.6933 337.205 78.292C337.504 77.8813 337.854 77.578 338.255 77.382C338.666 77.186 339.118 77.088 339.613 77.088C340.126 77.088 340.593 77.186 341.013 77.382C341.433 77.578 341.788 77.8813 342.077 78.292C342.376 78.6933 342.604 79.2113 342.763 79.846C342.922 80.4807 343.001 81.232 343.001 82.1C343.001 82.996 342.917 83.7613 342.749 84.396C342.581 85.0307 342.348 85.5487 342.049 85.95C341.75 86.3513 341.396 86.6453 340.985 86.832C340.574 87.0187 340.126 87.112 339.641 87.112ZM339.641 85.936C339.958 85.936 340.238 85.8707 340.481 85.74C340.733 85.6 340.943 85.3807 341.111 85.082C341.288 84.774 341.424 84.3773 341.517 83.892C341.61 83.3973 341.657 82.8 341.657 82.1C341.657 81.372 341.606 80.7653 341.503 80.28C341.41 79.7853 341.274 79.3887 341.097 79.09C340.92 78.7913 340.705 78.5813 340.453 78.46C340.201 78.3293 339.921 78.264 339.613 78.264C339.324 78.264 339.058 78.3293 338.815 78.46C338.572 78.5813 338.362 78.7913 338.185 79.09C338.008 79.3793 337.868 79.7713 337.765 80.266C337.672 80.7607 337.625 81.372 337.625 82.1C337.625 82.8187 337.676 83.4253 337.779 83.92C337.882 84.4053 338.022 84.7973 338.199 85.096C338.386 85.3947 338.6 85.6093 338.843 85.74C339.095 85.8707 339.361 85.936 339.641 85.936ZM347.338 87.112C346.825 87.112 346.363 87.014 345.952 86.818C345.542 86.622 345.187 86.3187 344.888 85.908C344.599 85.4973 344.375 84.9793 344.216 84.354C344.058 83.7193 343.978 82.968 343.978 82.1C343.978 81.232 344.058 80.4807 344.216 79.846C344.384 79.2113 344.613 78.6933 344.902 78.292C345.201 77.8813 345.551 77.578 345.952 77.382C346.363 77.186 346.816 77.088 347.31 77.088C347.824 77.088 348.29 77.186 348.71 77.382C349.13 77.578 349.485 77.8813 349.774 78.292C350.073 78.6933 350.302 79.2113 350.46 79.846C350.619 80.4807 350.698 81.232 350.698 82.1C350.698 82.996 350.614 83.7613 350.446 84.396C350.278 85.0307 350.045 85.5487 349.746 85.95C349.448 86.3513 349.093 86.6453 348.682 86.832C348.272 87.0187 347.824 87.112 347.338 87.112ZM347.338 85.936C347.656 85.936 347.936 85.8707 348.178 85.74C348.43 85.6 348.64 85.3807 348.808 85.082C348.986 84.774 349.121 84.3773 349.214 83.892C349.308 83.3973 349.354 82.8 349.354 82.1C349.354 81.372 349.303 80.7653 349.2 80.28C349.107 79.7853 348.972 79.3887 348.794 79.09C348.617 78.7913 348.402 78.5813 348.15 78.46C347.898 78.3293 347.618 78.264 347.31 78.264C347.021 78.264 346.755 78.3293 346.512 78.46C346.27 78.5813 346.06 78.7913 345.882 79.09C345.705 79.3793 345.565 79.7713 345.462 80.266C345.369 80.7607 345.322 81.372 345.322 82.1C345.322 82.8187 345.374 83.4253 345.476 83.92C345.579 84.4053 345.719 84.7973 345.896 85.096C346.083 85.3947 346.298 85.6093 346.54 85.74C346.792 85.8707 347.058 85.936 347.338 85.936Z" fill="#6B7683"/>
</svg>
