<svg width="102" height="40" viewBox="0 0 102 40" fill="none" xmlns="http://www.w3.org/2000/svg">
<path d="M31.3788 7.5H8.87386L10.4951 3H33L31.3788 7.5ZM30.5681 9.75H8.05311L6.43187 14.25H28.9368L30.558 9.75H30.5681ZM28.1363 16.5H5.62124L4 21H26.5049L28.1261 16.5H28.1363Z" fill="#00AAFF"/>
<path d="M84.5188 31.6306H88.553C90.0836 31.6306 91.006 31.2665 91.6547 30.4595C91.9791 30.056 92.4453 29.3376 92.4453 27.9894C92.4453 26.6412 91.9791 25.6964 91.0567 25.0174C90.4992 24.6139 89.7592 24.3876 88.5125 24.3876H84.5289V31.6306H84.5188ZM79.1871 35.9902V10H96.6113L95.0808 14.3596H84.5188V20.1166H88.8267C92.3034 20.1166 94.1077 20.9235 95.3544 21.9569C96.3275 22.7638 98 24.5647 98 28.1173C98 31.6699 96.287 33.5594 94.8476 34.5534C93.1751 35.6752 91.4216 35.9902 87.8536 35.9902H79.1871ZM63.7597 35.9902V14.3596H56.0258V10H77.5248L75.9942 14.3596H69.1421V36H63.7699L63.7597 35.9902ZM42.3114 20.3823H45.3219C46.2443 20.3823 46.7105 20.3823 47.1768 20.2445C48.4236 19.8804 49.2142 18.8077 49.2142 17.3217C49.2142 15.57 48.383 14.8024 47.1768 14.4383C46.67 14.3005 46.153 14.2612 45.1394 14.2612H42.3114V20.3823ZM42.3621 24.8796V31.7192H46.0719C47.1869 31.7192 48.2006 31.6306 48.9405 30.9516C49.6805 30.2725 50.0048 29.4262 50.0048 28.2945C50.0048 27.4383 49.7717 26.6313 49.3054 26.0409C48.5148 25.0961 47.5417 24.8698 45.8794 24.8698H42.3621V24.8796ZM50.9374 22.134V22.2226C51.9611 22.5867 52.9342 23.2165 53.441 23.62C55.0121 24.8796 55.7115 26.5428 55.7115 28.7078C55.7115 32.2604 53.7654 34.8289 50.5724 35.6359C49.5994 35.9016 48.5756 36 46.6801 36H37V10H45.5753C47.339 10 48.5452 10.0886 49.6095 10.3641C52.7112 11.1711 54.7486 13.2475 54.7486 16.5246C54.7486 18.2763 54.0999 19.7623 53.0356 20.7562C52.5693 21.2089 51.9206 21.7502 50.9475 22.1537L50.9374 22.134Z" fill="#0A2896"/>
</svg>
