<svg width="20" height="20" viewBox="0 0 20 20" fill="none" xmlns="http://www.w3.org/2000/svg">
<path d="M6.66667 14.1667C6.88768 14.1667 7.09964 14.079 7.25592 13.9227C7.4122 13.7664 7.5 13.5544 7.5 13.3334C7.50409 13.2779 7.50409 13.2222 7.5 13.1667C7.49088 13.1145 7.47403 13.064 7.45 13.0167C7.43176 12.9636 7.40654 12.9132 7.375 12.8667L7.275 12.7417C7.19575 12.6659 7.10229 12.6064 7 12.5667C6.84422 12.4934 6.66955 12.4701 6.5 12.5001L6.35 12.5501L6.2 12.6251C6.15634 12.6558 6.1146 12.6892 6.075 12.7251L5.975 12.8501C5.94346 12.8965 5.91824 12.947 5.9 13.0001C5.87597 13.0473 5.85912 13.0979 5.85 13.1501C5.84591 13.2056 5.84591 13.2613 5.85 13.3167C5.85 13.5378 5.9378 13.7497 6.09408 13.906C6.25036 14.0623 6.46232 14.1501 6.68333 14.1501L6.66667 14.1667ZM13.3333 14.1667C13.5543 14.1667 13.7663 14.079 13.9226 13.9227C14.0789 13.7664 14.1667 13.5544 14.1667 13.3334C14.1708 13.2779 14.1708 13.2222 14.1667 13.1667C14.1575 13.1145 14.1407 13.064 14.1167 13.0167C14.0984 12.9636 14.0732 12.9132 14.0417 12.8667L13.9417 12.7417C13.8607 12.6681 13.7677 12.6089 13.6667 12.5667C13.4638 12.4834 13.2362 12.4834 13.0333 12.5667C12.9323 12.6089 12.8393 12.6681 12.7583 12.7417L12.6583 12.8667C12.6268 12.9132 12.6016 12.9636 12.5833 13.0167C12.5593 13.064 12.5425 13.1145 12.5333 13.1667C12.5292 13.2222 12.5292 13.2779 12.5333 13.3334C12.5343 13.552 12.621 13.7615 12.775 13.9167C12.9227 14.0679 13.1223 14.1572 13.3333 14.1667ZM10.8333 4.16675H9.16667C8.94565 4.16675 8.73369 4.25455 8.57741 4.41083C8.42113 4.56711 8.33333 4.77907 8.33333 5.00008C8.33333 5.2211 8.42113 5.43306 8.57741 5.58934C8.73369 5.74562 8.94565 5.83341 9.16667 5.83341H10.8333C11.0543 5.83341 11.2663 5.74562 11.4226 5.58934C11.5789 5.43306 11.6667 5.2211 11.6667 5.00008C11.6667 4.77907 11.5789 4.56711 11.4226 4.41083C11.2663 4.25455 11.0543 4.16675 10.8333 4.16675ZM15 1.66675H5C4.33696 1.66675 3.70107 1.93014 3.23223 2.39898C2.76339 2.86782 2.5 3.50371 2.5 4.16675V14.1667C2.50145 14.6825 2.6624 15.1852 2.96078 15.606C3.25917 16.0267 3.68038 16.3448 4.16667 16.5167V17.5001C4.16667 17.7211 4.25446 17.9331 4.41074 18.0893C4.56702 18.2456 4.77899 18.3334 5 18.3334C5.22101 18.3334 5.43298 18.2456 5.58926 18.0893C5.74554 17.9331 5.83333 17.7211 5.83333 17.5001V16.6667H14.1667V17.5001C14.1667 17.7211 14.2545 17.9331 14.4107 18.0893C14.567 18.2456 14.779 18.3334 15 18.3334C15.221 18.3334 15.433 18.2456 15.5893 18.0893C15.7455 17.9331 15.8333 17.7211 15.8333 17.5001V16.5167C16.3196 16.3448 16.7408 16.0267 17.0392 15.606C17.3376 15.1852 17.4986 14.6825 17.5 14.1667V4.16675C17.5 3.50371 17.2366 2.86782 16.7678 2.39898C16.2989 1.93014 15.663 1.66675 15 1.66675ZM15.8333 14.1667C15.8333 14.3878 15.7455 14.5997 15.5893 14.756C15.433 14.9123 15.221 15.0001 15 15.0001H5C4.77899 15.0001 4.56702 14.9123 4.41074 14.756C4.25446 14.5997 4.16667 14.3878 4.16667 14.1667V11.6667H15.8333V14.1667ZM15.8333 10.0001H4.16667V4.16675C4.16667 3.94573 4.25446 3.73377 4.41074 3.57749C4.56702 3.42121 4.77899 3.33341 5 3.33341H15C15.221 3.33341 15.433 3.42121 15.5893 3.57749C15.7455 3.73377 15.8333 3.94573 15.8333 4.16675V10.0001Z" fill="#2F3441"/>
</svg>
